<svg xmlns="http://www.w3.org/2000/svg" viewBox="0 0 627 291" width="627" height="291">
	<g transform="scale(0.25)"><path d="M 2359.895 103.238 C 2355.681 105.752, 2353.733 109.234, 2347.444 125.500 C 2344.892 132.100, 2342.439 137.950, 2341.992 138.500 C 2341.545 139.050, 2340.863 141.192, 2340.476 143.261 C 2340.090 145.330, 2339.386 147.261, 2338.913 147.554 C 2338.439 147.847, 2337.379 150.204, 2336.557 152.793 C 2334.246 160.068, 2331.535 167.277, 2330.206 169.684 C 2329.543 170.886, 2328.986 172.461, 2328.969 173.184 C 2328.952 173.908, 2327.831 176.750, 2326.478 179.500 C 2325.125 182.250, 2324.014 185.261, 2324.009 186.191 C 2324.004 187.121, 2323.562 188.153, 2323.026 188.484 C 2322.490 188.815, 2321.411 191.204, 2320.627 193.793 C 2319.844 196.382, 2318.485 199.850, 2317.608 201.500 C 2316.730 203.150, 2315.995 205.175, 2315.974 206 C 2315.953 206.825, 2315.276 208.374, 2314.468 209.441 C 2313.661 210.509, 2312.997 212.084, 2312.994 212.941 C 2312.990 213.799, 2312.282 215.850, 2311.419 217.500 C 2310.556 219.150, 2308.492 224.100, 2306.832 228.500 C 2305.173 232.900, 2303.451 237.210, 2303.006 238.078 C 2302.562 238.945, 2298.732 248.365, 2294.496 259.010 C 2287.026 277.780, 2285.711 280.954, 2281.831 289.566 C 2280.824 291.802, 2280 294.109, 2280 294.693 C 2280 295.277, 2279.325 296.315, 2278.500 297 C 2277.675 297.685, 2277 298.934, 2277 299.776 C 2277 300.618, 2275.933 303.600, 2274.630 306.404 C 2273.326 309.207, 2271.020 314.650, 2269.504 318.500 C 2267.989 322.350, 2265.405 328.425, 2263.763 332 C 2262.121 335.575, 2259.977 340.300, 2259 342.500 C 2253.240 355.468, 2249.319 364.213, 2246.895 369.500 C 2238.766 387.230, 2237 391.188, 2237 391.678 C 2237 391.986, 2234.018 398.372, 2230.372 405.869 C 2226.727 413.366, 2222.060 423.100, 2220.001 427.500 C 2215.144 437.879, 2201.795 464.916, 2199.017 470 C 2198.566 470.825, 2195.659 476.450, 2192.557 482.500 C 2189.454 488.550, 2186.484 494.175, 2185.957 495 C 2185.430 495.825, 2184.538 497.625, 2183.976 499 C 2183.413 500.375, 2181.876 503.300, 2180.560 505.500 C 2179.245 507.700, 2177.253 511.300, 2176.134 513.500 C 2170.468 524.638, 2162.712 538.661, 2161.438 540.069 C 2160.647 540.943, 2160 542.162, 2160 542.779 C 2160 543.395, 2158.609 545.961, 2156.909 548.480 C 2155.209 550.999, 2152.457 555.634, 2150.795 558.780 C 2149.133 561.926, 2147.236 565.175, 2146.580 566 C 2145.924 566.825, 2144.828 568.625, 2144.145 570 C 2143.462 571.375, 2141.809 574.300, 2140.472 576.500 C 2139.134 578.700, 2137.476 581.625, 2136.787 583 C 2136.099 584.375, 2133.840 587.975, 2131.769 591 C 2129.697 594.025, 2128.002 596.802, 2128.001 597.172 C 2128.001 597.541, 2126.088 600.768, 2123.750 604.343 C 2118.538 612.313, 2113.187 620.946, 2109.550 627.250 C 2107.262 631.216, 2106.325 632, 2103.874 632 C 2102.241 632, 2100.692 631.361, 2100.385 630.561 C 2100.081 629.770, 2098.567 628.844, 2097.020 628.504 C 2095.473 628.165, 2093.416 627.012, 2092.449 625.943 C 2091.481 624.874, 2090.042 624, 2089.249 624 C 2088.457 624, 2086.614 623.331, 2085.154 622.514 C 2079.816 619.524, 2073.212 617.720, 2060.207 615.699 C 2047.098 613.662, 2046.731 613.659, 2033.707 615.446 C 2026.443 616.443, 2019.503 617.875, 2018.285 618.629 C 2017.067 619.383, 2015.351 620, 2014.472 620 C 2012.795 620, 2003.305 624.505, 1996.500 628.531 C 1994.300 629.832, 1991.442 631.376, 1990.150 631.962 C 1985.855 633.908, 1972.124 646.751, 1955.970 663.932 C 1955.129 664.827, 1952.879 667.771, 1950.970 670.474 C 1949.062 673.177, 1946.924 676.088, 1946.221 676.944 C 1945.517 677.800, 1943.189 680.625, 1941.047 683.223 C 1938.905 685.821, 1936.862 688.858, 1936.509 689.973 C 1936.155 691.088, 1935.457 692, 1934.958 692 C 1934.459 692, 1933.395 693.237, 1932.593 694.750 C 1931.791 696.263, 1927.842 700.895, 1923.818 705.045 C 1916.737 712.345, 1912.976 715.874, 1892.957 734 C 1887.794 738.675, 1882.429 743.639, 1881.035 745.032 C 1879.011 747.053, 1868.179 756.077, 1855.005 766.716 C 1853.796 767.692, 1833.364 783.600, 1824.500 790.465 C 1817.180 796.135, 1799.797 808.078, 1793.100 812.038 C 1791.670 812.884, 1788.475 814.903, 1786 816.526 C 1783.525 818.149, 1780.375 820.061, 1779 820.775 C 1777.625 821.489, 1774.700 823.140, 1772.500 824.444 C 1767.162 827.608, 1752.369 834.888, 1748 836.501 C 1746.075 837.212, 1743.150 838.512, 1741.500 839.390 C 1739.850 840.269, 1737.501 840.990, 1736.281 840.994 C 1735.060 840.997, 1732.220 841.960, 1729.970 843.133 C 1726.603 844.888, 1725.440 845.066, 1723.404 844.138 C 1720.721 842.916, 1720.699 841.950, 1723.017 827 C 1723.486 823.975, 1724.141 818.575, 1724.472 815 C 1725.084 808.379, 1727.013 798.280, 1729.724 787.500 C 1730.554 784.200, 1731.826 778.350, 1732.550 774.500 C 1733.275 770.650, 1734.332 766.150, 1734.900 764.500 C 1735.469 762.850, 1736.420 756.100, 1737.015 749.500 C 1737.610 742.900, 1738.350 735.295, 1738.661 732.599 C 1740.155 719.629, 1731.137 705.832, 1713.500 694.102 C 1701.506 686.125, 1698.294 684.808, 1689.480 684.252 C 1681.146 683.727, 1676.728 684.859, 1666.802 690.062 C 1664.768 691.128, 1662.270 692, 1661.251 692 C 1660.233 692, 1656.816 689.698, 1653.660 686.884 C 1640.959 675.565, 1627.658 668.359, 1611 663.775 C 1600.749 660.954, 1578.823 660.707, 1568 663.290 C 1552.483 666.994, 1538.562 673.544, 1524.751 683.641 C 1519.779 687.276, 1496.028 711.332, 1495.973 712.788 C 1495.959 713.180, 1494.271 715.402, 1492.223 717.727 C 1488.370 722.102, 1487.228 723.530, 1481.747 730.818 C 1479.265 734.119, 1475.129 737.065, 1464.193 743.318 C 1456.325 747.818, 1448.675 752.281, 1447.193 753.235 C 1445.712 754.189, 1443.376 755.458, 1442.002 756.055 C 1440.628 756.651, 1438.828 757.740, 1438.002 758.474 C 1437.176 759.209, 1433.669 761.315, 1430.209 763.155 C 1421.907 767.569, 1419.308 769.057, 1414.372 772.224 C 1412.101 773.680, 1408.726 775.560, 1406.872 776.401 C 1405.017 777.242, 1401.700 779.062, 1399.500 780.445 C 1397.300 781.828, 1394.044 783.756, 1392.265 784.730 C 1389.035 786.497, 1364.842 800.319, 1362 802.021 C 1361.175 802.515, 1357.800 804.522, 1354.500 806.481 C 1351.200 808.440, 1347.825 810.447, 1347 810.942 C 1346.175 811.436, 1341 814.513, 1335.500 817.779 C 1330 821.046, 1318.401 827.944, 1309.725 833.109 C 1301.049 838.274, 1292.499 843.351, 1290.725 844.390 C 1288.951 845.430, 1284.575 848.180, 1281 850.502 C 1277.425 852.823, 1273.375 855.309, 1272 856.025 C 1270.625 856.741, 1269.050 857.904, 1268.500 858.609 C 1266.790 860.801, 1262.110 861.450, 1261.397 859.593 C 1261.056 858.703, 1261.226 857.418, 1261.775 856.737 C 1262.325 856.057, 1263.888 852.575, 1265.248 849 C 1273.242 827.997, 1278.315 815.384, 1279.102 814.550 C 1279.596 814.028, 1280 812.971, 1280 812.201 C 1280 811.432, 1280.630 809.384, 1281.400 807.651 C 1282.170 805.918, 1284.244 801.125, 1286.008 797 C 1289.830 788.063, 1292.531 781.931, 1295.037 776.500 C 1296.052 774.300, 1298.640 768.675, 1300.789 764 C 1306.140 752.353, 1307.688 745.269, 1306.087 739.749 C 1303.751 731.696, 1299.482 724.657, 1293 718.169 C 1289.425 714.590, 1285.825 711.145, 1285 710.513 C 1281.608 707.914, 1274.022 703.998, 1272.322 703.968 C 1271.320 703.951, 1269.626 703.276, 1268.559 702.468 C 1267.290 701.509, 1264.241 701, 1259.758 701 C 1253.993 701, 1251.350 701.649, 1243.199 705.067 C 1232.007 709.760, 1199.565 725.856, 1191 730.966 C 1190.175 731.458, 1185.264 734.255, 1180.086 737.181 C 1174.909 740.106, 1169.059 743.510, 1167.086 744.744 C 1165.114 745.978, 1162.375 747.541, 1161 748.217 C 1159.625 748.893, 1156.829 750.758, 1154.787 752.361 C 1152.745 753.964, 1148.855 756.676, 1146.143 758.388 C 1141.539 761.294, 1132.855 767.170, 1123.500 773.711 C 1113.881 780.436, 1095.065 795.005, 1090.348 799.378 C 1088.793 800.820, 1086.953 802, 1086.260 802 C 1084.857 802, 1084.677 797.647, 1085.950 794.500 C 1086.444 793.278, 1086.222 791.189, 1085.379 789.128 C 1084.621 787.273, 1084 785.073, 1084 784.238 C 1084 781.882, 1073.585 769.560, 1066.871 763.972 C 1057.483 756.159, 1049.373 752.814, 1038.500 752.268 C 1030.297 751.856, 1029.196 752.023, 1026.067 754.158 C 1022.469 756.612, 1017.478 764.144, 1016.377 768.780 C 1016.022 770.276, 1015.152 772.175, 1014.444 773 C 1013.735 773.825, 1012.847 775.739, 1012.469 777.252 C 1012.091 778.766, 1010.931 781.674, 1009.891 783.714 C 1008.851 785.754, 1008 788.138, 1008 789.011 C 1008 789.885, 1007.589 791.028, 1007.086 791.550 C 1006.259 792.409, 1001.357 804.721, 994.367 823.500 C 992.933 827.350, 991.384 831.400, 990.923 832.500 C 988.806 837.553, 977.784 872.367, 976.042 879.500 C 975.505 881.700, 973.920 887.550, 972.519 892.500 C 971.118 897.450, 969.516 904.200, 968.959 907.500 C 968.401 910.800, 967.474 914.850, 966.899 916.500 C 966.323 918.150, 965.173 923.775, 964.343 929 C 963.512 934.225, 962.594 939.988, 962.301 941.806 C 961.620 946.032, 964.401 955.969, 968.096 962.517 C 970.737 967.196, 984.807 981.602, 991.627 986.609 C 999.867 992.659, 1011.854 995.341, 1018.411 992.602 C 1021.622 991.260, 1028.087 983.781, 1034.500 973.990 C 1036.150 971.471, 1038.065 968.755, 1038.755 967.955 C 1039.445 967.155, 1042.010 963.800, 1044.455 960.500 C 1046.901 957.200, 1049.598 953.600, 1050.450 952.500 C 1051.303 951.400, 1054.045 947.800, 1056.545 944.500 C 1060.937 938.702, 1067.203 931.077, 1069.721 928.466 C 1070.393 927.770, 1074.401 923.218, 1078.627 918.350 C 1091.169 903.907, 1125.786 869.947, 1135.558 862.500 C 1137.001 861.400, 1139.154 859.559, 1140.341 858.408 C 1143.454 855.392, 1170.717 833.974, 1175.793 830.558 C 1178.154 828.968, 1180.404 827.140, 1180.793 826.494 C 1181.182 825.848, 1182.513 825.064, 1183.750 824.753 C 1186.602 824.036, 1186.629 825.321, 1183.918 832.775 C 1181.666 838.966, 1179.974 844.820, 1177.496 855 C 1176.626 858.575, 1175.268 863.750, 1174.479 866.500 C 1170.551 880.182, 1170.877 909.658, 1175.050 918.099 C 1176.247 920.520, 1178.188 924.433, 1179.363 926.796 C 1180.538 929.158, 1183.178 932.955, 1185.229 935.232 C 1187.280 937.510, 1189.080 939.654, 1189.229 939.997 C 1189.378 940.339, 1191.913 942.514, 1194.863 944.828 C 1208.192 955.288, 1219.543 959.524, 1234 959.435 C 1246.814 959.357, 1253.098 957.251, 1276.779 945.104 C 1281.207 942.833, 1298.472 931.615, 1305 926.767 C 1310.797 922.462, 1330.379 906.936, 1341.815 897.578 C 1348.588 892.035, 1355.328 886.600, 1356.793 885.500 C 1358.259 884.400, 1363.742 880.113, 1368.979 875.973 C 1378.571 868.391, 1400.342 851.783, 1404.338 849 C 1407.572 846.748, 1425.138 833.374, 1428 830.985 C 1433.700 826.227, 1436 825.810, 1436 829.535 C 1436 830.930, 1435.328 833.096, 1434.506 834.350 C 1433.685 835.604, 1432.722 838.851, 1432.368 841.565 C 1432.013 844.279, 1431.307 847.310, 1430.799 848.300 C 1429.856 850.138, 1426.651 866.900, 1424.832 879.500 C 1423.488 888.812, 1424.396 902.103, 1426.622 905.706 C 1432.831 915.756, 1435.592 919.324, 1441.266 924.632 C 1449.692 932.514, 1455.570 935.829, 1465.310 938.194 C 1472.940 940.046, 1473.559 940.059, 1477.426 938.463 C 1483.336 936.023, 1485.040 935.181, 1489.500 932.491 C 1491.700 931.165, 1494.850 929.332, 1496.500 928.418 C 1503.762 924.398, 1527.636 907.363, 1535.932 900.282 C 1547.378 890.513, 1570.166 868.712, 1599.987 839 C 1617.928 821.125, 1635.234 804.250, 1638.443 801.500 C 1641.653 798.750, 1646.070 794.813, 1648.260 792.750 C 1650.450 790.688, 1653.138 789, 1654.234 789 C 1655.949 789, 1656.136 789.453, 1655.576 792.250 C 1653.620 802.008, 1653.139 806.391, 1653.073 815.068 C 1653.032 820.495, 1653.607 826.772, 1654.402 829.568 C 1655.173 832.281, 1656.111 836.282, 1656.486 838.460 C 1657.333 843.368, 1666.214 861.736, 1670.113 866.642 C 1671.701 868.640, 1673.009 870.551, 1673.020 870.888 C 1673.049 871.823, 1682.110 881.091, 1686.555 884.732 C 1703.576 898.678, 1717.710 904.769, 1739.500 907.550 C 1745.015 908.254, 1768.680 904.692, 1773 902.508 C 1774.375 901.813, 1778.200 900.207, 1781.500 898.938 C 1787.644 896.575, 1797.926 891.828, 1801.500 889.704 C 1813.209 882.745, 1830.773 870.596, 1844 860.309 C 1847.025 857.956, 1850.400 855.365, 1851.500 854.551 C 1856.912 850.545, 1866.211 842.979, 1872.500 837.465 C 1876.350 834.089, 1880.264 831.051, 1881.199 830.714 C 1883.704 829.812, 1884.263 832.828, 1882.968 840.262 C 1881.648 847.844, 1883.319 855.223, 1888.094 862.891 C 1889.672 865.426, 1891.369 868.400, 1891.863 869.500 C 1893.505 873.154, 1906.645 883.877, 1914.126 887.668 C 1919.948 890.618, 1922.942 891.492, 1928.350 891.821 C 1934.750 892.210, 1935.800 891.955, 1944.350 887.944 C 1949.382 885.583, 1958.089 881.030, 1963.697 877.826 C 1969.306 874.622, 1974.116 872, 1974.386 872 C 1974.656 872, 1979.882 868.625, 1986 864.500 C 1992.118 860.375, 1997.433 856.993, 1997.812 856.985 C 1998.190 856.976, 2000.750 855.389, 2003.500 853.457 C 2006.250 851.525, 2009.625 849.187, 2011 848.262 C 2017.075 844.177, 2041.766 824.586, 2049.696 817.560 C 2050.354 816.977, 2053.954 813.813, 2057.696 810.528 C 2064.147 804.867, 2082.966 786.182, 2096.501 772 C 2102.818 765.382, 2113.286 753.213, 2120.500 744.102 C 2122.700 741.324, 2126.181 737.127, 2128.236 734.775 C 2130.291 732.424, 2131.978 730.250, 2131.986 729.945 C 2131.994 729.640, 2133.539 727.710, 2135.420 725.657 C 2138.487 722.309, 2138.904 722.123, 2139.454 723.856 C 2139.792 724.919, 2139.411 727.299, 2138.608 729.145 C 2136.277 734.502, 2133.961 741.992, 2132.469 749 C 2131.707 752.575, 2130.175 758.650, 2129.065 762.500 C 2127.954 766.350, 2126.331 772.200, 2125.457 775.500 C 2124.583 778.800, 2123.373 783.075, 2122.768 785 C 2122.163 786.925, 2121.097 790.975, 2120.399 794 C 2118.106 803.935, 2115.936 812.426, 2114.519 817 C 2113.753 819.475, 2112.822 823.479, 2112.450 825.898 C 2112.078 828.317, 2111.200 831.692, 2110.498 833.398 C 2109.796 835.104, 2108.895 838.975, 2108.496 842 C 2108.096 845.025, 2107.298 848.396, 2106.721 849.490 C 2106.144 850.585, 2105.133 854.410, 2104.475 857.990 C 2103.816 861.571, 2102.487 867.418, 2101.521 870.984 C 2098.674 881.493, 2100.387 889.936, 2107.500 900.458 C 2111.531 906.421, 2124.490 916.845, 2133.897 921.692 C 2139.764 924.715, 2150.690 927.087, 2155.301 926.339 C 2159.373 925.678, 2165 920.742, 2165 917.832 C 2165 916.770, 2165.628 914.686, 2166.394 913.200 C 2167.161 911.715, 2168.233 907.800, 2168.775 904.500 C 2169.317 901.200, 2170.976 894, 2172.461 888.500 C 2173.945 883, 2175.786 875.575, 2176.552 872 C 2178.352 863.600, 2180.756 853.802, 2182.564 847.500 C 2184.088 842.187, 2186.223 834.015, 2188.442 825 C 2189.187 821.975, 2190.996 815, 2192.463 809.500 C 2193.929 804, 2195.704 796.984, 2196.407 793.909 C 2197.111 790.833, 2198.032 787.758, 2198.455 787.074 C 2198.877 786.389, 2199.792 783.281, 2200.486 780.165 C 2201.181 777.049, 2203.380 769.108, 2205.375 762.517 C 2207.369 755.927, 2209 749.600, 2209 748.458 C 2209 747.317, 2209.661 745.509, 2210.468 744.441 C 2211.276 743.374, 2211.951 741.515, 2211.968 740.312 C 2211.986 739.108, 2213.134 734.383, 2214.520 729.812 C 2215.907 725.240, 2217.983 718.350, 2219.135 714.500 C 2220.287 710.650, 2221.651 706.340, 2222.165 704.921 C 2222.680 703.503, 2223.707 699.903, 2224.448 696.921 C 2225.189 693.940, 2226.281 690.150, 2226.873 688.500 C 2227.466 686.850, 2229.125 681.450, 2230.560 676.500 C 2231.995 671.550, 2233.766 665.925, 2234.496 664 C 2235.226 662.075, 2236.818 657.125, 2238.035 653 C 2241.588 640.957, 2245.119 629.770, 2246.557 626 C 2247.292 624.075, 2248.194 620.925, 2248.562 619 C 2248.930 617.075, 2249.588 615.050, 2250.023 614.500 C 2250.459 613.950, 2251.508 611.025, 2252.353 608 C 2254.134 601.628, 2256.601 594.003, 2258.500 589 C 2259.949 585.182, 2262.321 578.052, 2264.488 571 C 2265.249 568.525, 2266.555 564.700, 2267.392 562.500 C 2268.228 560.300, 2268.932 557.578, 2268.956 556.450 C 2268.980 555.323, 2269.473 553.927, 2270.051 553.349 C 2270.629 552.771, 2271.731 550.093, 2272.499 547.399 C 2274.601 540.022, 2276.977 532.854, 2278.432 529.500 C 2279.147 527.850, 2281.138 522.225, 2282.856 517 C 2284.574 511.775, 2288.045 501.650, 2290.570 494.500 C 2293.094 487.350, 2295.773 479.700, 2296.522 477.500 C 2297.271 475.300, 2299.065 470.350, 2300.507 466.500 C 2301.950 462.650, 2303.617 457.700, 2304.212 455.500 C 2304.806 453.300, 2305.679 451.001, 2306.152 450.391 C 2306.624 449.781, 2307.646 447.306, 2308.422 444.891 C 2309.198 442.476, 2311.022 437.350, 2312.475 433.500 C 2313.928 429.650, 2315.739 424.475, 2316.500 422 C 2317.261 419.525, 2319.063 414.350, 2320.504 410.500 C 2324.663 399.394, 2327.019 392.771, 2328.154 389 C 2328.734 387.075, 2329.560 385.050, 2329.991 384.500 C 2330.422 383.950, 2332.194 379.225, 2333.928 374 C 2335.663 368.775, 2337.691 363.375, 2338.436 362 C 2339.181 360.625, 2340.255 357.925, 2340.823 356 C 2341.391 354.075, 2343.043 349.350, 2344.494 345.500 C 2345.945 341.650, 2347.785 336.490, 2348.583 334.032 C 2349.382 331.575, 2350.477 329.123, 2351.018 328.582 C 2351.558 328.042, 2352 326.803, 2352 325.828 C 2352 324.854, 2354.025 319.081, 2356.500 313 C 2358.975 306.919, 2361 301.146, 2361 300.172 C 2361 299.197, 2361.508 297.892, 2362.130 297.270 C 2363.207 296.193, 2365.423 290.555, 2368.444 281.204 C 2369.208 278.840, 2370.258 276.365, 2370.778 275.704 C 2371.299 275.042, 2372.032 273.150, 2372.409 271.500 C 2372.786 269.850, 2374.586 264.675, 2376.410 260 C 2378.233 255.325, 2382.446 244.525, 2385.772 236 C 2389.097 227.475, 2392.107 219.375, 2392.461 218 C 2393.144 215.341, 2396.024 208.157, 2399.120 201.390 C 2400.154 199.130, 2401 196.924, 2401 196.488 C 2401 195.568, 2409.667 173.250, 2410.911 170.967 C 2411.370 170.124, 2412.081 167.874, 2412.491 165.967 C 2412.901 164.060, 2413.722 161.600, 2414.314 160.500 C 2417.381 154.809, 2419.957 145.323, 2419.338 142 C 2417.288 130.992, 2408.025 119.002, 2395.001 110.501 C 2380.948 101.327, 2367.697 98.586, 2359.895 103.238 M 2067 674.500 C 2065.625 675.286, 2063.825 675.949, 2063 675.974 C 2059.875 676.069, 2050.768 681.102, 2044.260 686.331 C 2038.473 690.981, 2027.961 701.474, 2016.821 713.719 C 2011.235 719.859, 1994.597 744.336, 1988.081 756 C 1985.777 760.125, 1983.481 764.175, 1982.980 765 C 1978.811 771.863, 1975.800 779.200, 1976.759 780.159 C 1979.558 782.958, 2025.702 739.570, 2043.928 717 C 2046.371 713.975, 2049.974 709.639, 2051.935 707.365 C 2053.896 705.091, 2058.425 699.363, 2062 694.637 C 2065.575 689.911, 2070.181 684.121, 2072.236 681.772 C 2074.291 679.422, 2075.978 676.487, 2075.986 675.250 C 2075.998 673.368, 2075.468 673.006, 2072.750 673.035 C 2070.963 673.055, 2068.375 673.714, 2067 674.500 M 889.808 709.024 C 887.161 709.783, 870.457 720.287, 868.500 722.423 C 867.950 723.024, 863.675 726.637, 859 730.454 C 837.171 748.275, 810.706 776.080, 798.041 794.500 C 796.150 797.250, 794.347 799.725, 794.034 800 C 793.721 800.275, 790.371 805.097, 786.588 810.715 C 777.640 824.007, 778.476 823.256, 742.135 850.694 C 734.171 856.707, 728.786 860.495, 718 867.674 C 713.325 870.786, 709.050 873.833, 708.500 874.445 C 707.321 875.757, 685.245 890.314, 672 898.513 C 670.075 899.705, 667.150 901.534, 665.500 902.578 C 662.201 904.665, 661.936 904.826, 652.823 910.293 C 649.345 912.379, 644.250 915.475, 641.500 917.173 C 638.750 918.871, 634.025 921.576, 631 923.183 C 627.975 924.790, 623.250 927.344, 620.500 928.858 C 617.750 930.372, 613.025 932.860, 610 934.387 C 606.975 935.914, 603.825 937.580, 603 938.089 C 595.089 942.970, 593.709 941.992, 592.850 930.896 C 591.423 912.450, 579.651 893.210, 560.500 878.024 C 557.200 875.407, 553.375 872.926, 552 872.511 C 550.625 872.095, 548.905 871.278, 548.178 870.695 C 545.108 868.234, 535.172 865.048, 526.931 863.882 C 516.402 862.391, 504.320 863.642, 494 867.291 C 488.030 869.402, 486.304 870.229, 480.500 873.762 C 479.400 874.431, 476.925 875.837, 475 876.885 C 470.432 879.372, 454.486 891.303, 449.958 895.622 C 444.080 901.227, 442.377 899.997, 443.935 891.269 C 444.501 888.096, 445.680 879.258, 446.555 871.629 C 447.982 859.201, 447.991 857.018, 446.647 850.629 C 445.822 846.708, 444.887 841.925, 444.570 840 C 443.707 834.773, 439.967 826.252, 435.572 819.500 C 431.168 812.735, 419.962 801.426, 416.671 800.424 C 415.477 800.061, 413.825 799.210, 413 798.533 C 411.109 796.983, 403.028 794.184, 396.500 792.819 C 389.696 791.396, 368.610 792.375, 365.716 794.249 C 364.497 795.038, 362.150 796.015, 360.500 796.420 C 358.850 796.825, 356.825 797.743, 356 798.460 C 355.175 799.177, 353.474 800.076, 352.221 800.458 C 350.968 800.841, 347.722 802.581, 345.009 804.327 C 342.295 806.072, 337.778 808.850, 334.971 810.500 C 327.554 814.859, 293.677 837.228, 292.500 838.544 C 291.950 839.159, 289.025 841.321, 286 843.349 C 277.490 849.053, 271.580 853.377, 262.233 860.733 C 257.505 864.455, 252.865 867.950, 251.924 868.500 C 250.983 869.050, 248.477 870.939, 246.356 872.698 C 220.898 893.808, 210.484 902.871, 197.349 915.352 C 188.390 923.865, 185.392 923.145, 189.923 913.566 C 190.981 911.330, 192.306 907.925, 192.867 906 C 193.429 904.075, 195.263 898.697, 196.944 894.048 C 198.625 889.399, 199.998 884.899, 199.995 884.048 C 199.989 881.929, 195.882 872.149, 193.502 868.587 C 191.858 866.125, 185.862 859.959, 180 854.701 C 179.175 853.961, 176.700 852.302, 174.500 851.016 C 172.300 849.729, 169.600 847.925, 168.500 847.007 C 167.400 846.088, 162.147 844.271, 156.826 842.969 C 147.152 840.601, 147.152 840.601, 141.623 843.308 C 136.679 845.729, 135.782 846.675, 133.130 852.258 C 131.500 855.691, 129.285 860.975, 128.208 864 C 126.286 869.399, 124.980 873.023, 122.444 880 C 119.261 888.755, 114.917 903.551, 112.461 914 C 111.750 917.025, 110.432 922.650, 109.532 926.500 C 108.632 930.350, 107.480 934.850, 106.973 936.500 C 106.466 938.151, 105.557 943.101, 104.953 947.500 C 104.349 951.900, 103.244 957.975, 102.498 961 C 101.751 964.025, 100.658 971.450, 100.068 977.500 C 99.478 983.550, 98.493 992.100, 97.877 996.500 C 97.262 1000.900, 96.700 1012.375, 96.629 1022 C 96.481 1042.132, 96.332 1041.660, 106.881 1054.514 C 113.210 1062.225, 119.547 1066.994, 130.893 1072.583 C 136.768 1075.477, 138.890 1076, 144.765 1076 C 153.702 1076, 156.701 1073.916, 167.971 1059.871 C 172.548 1054.167, 177.058 1048.825, 177.993 1048 C 178.928 1047.175, 182.079 1043.575, 184.997 1040 C 196.928 1025.378, 228.429 992.858, 254.739 968 C 268.231 955.253, 267.781 955.655, 276.953 948.126 C 280.554 945.170, 283.725 942.470, 284 942.126 C 284.275 941.782, 287.200 939.255, 290.500 936.512 C 293.800 933.768, 296.950 931.045, 297.500 930.460 C 298.050 929.874, 300.497 928.069, 302.939 926.448 C 305.380 924.827, 308.323 922.600, 309.479 921.500 C 310.635 920.400, 314.863 917.025, 318.874 914 C 322.885 910.975, 329.497 905.913, 333.568 902.750 C 337.639 899.587, 341.371 897, 341.862 897 C 342.353 897, 343.373 896.255, 344.128 895.345 C 344.882 894.435, 346.962 893.079, 348.750 892.332 C 350.538 891.584, 352 890.560, 352 890.054 C 352 889.548, 352.788 888.881, 353.750 888.570 C 354.712 888.259, 356.863 886.767, 358.528 885.253 C 371.252 873.687, 377.968 871.211, 375.015 879.174 C 373.786 882.489, 372.693 889.955, 369.553 916.500 C 368.642 924.200, 367.275 934.550, 366.515 939.500 C 365.755 944.450, 364.393 955.475, 363.489 964 C 361.670 981.147, 362.299 986.862, 366.985 995.780 C 369.168 999.936, 370.767 1002.047, 377.920 1010.214 C 381.155 1013.908, 390.758 1021, 392.525 1021 C 392.975 1021, 394.060 1021.650, 394.938 1022.443 C 397.132 1024.429, 409.471 1026.260, 415.278 1025.462 C 418.906 1024.963, 421.434 1023.692, 425.778 1020.183 C 428.925 1017.642, 431.950 1015.066, 432.500 1014.459 C 433.050 1013.853, 437.325 1010.245, 442 1006.441 C 446.675 1002.638, 452.750 997.270, 455.501 994.513 C 458.251 991.756, 463.201 987.250, 466.501 984.500 C 469.800 981.750, 472.725 979.244, 473 978.931 C 473.275 978.618, 477.100 975.272, 481.500 971.496 C 485.900 967.719, 492.658 961.664, 496.517 958.039 C 508.706 946.591, 520.436 937, 522.250 937 C 524.305 937, 524.155 935.844, 524.399 953.500 C 524.566 965.538, 524.922 968.331, 526.935 973.427 C 530.862 983.369, 537.377 993.122, 543.476 998.192 C 545.004 999.461, 547.209 1001.450, 548.377 1002.610 C 551.262 1005.477, 560.033 1010.285, 568.500 1013.639 C 575.100 1016.254, 576.415 1016.415, 591.500 1016.456 C 604.834 1016.493, 608.067 1016.208, 610.904 1014.750 C 612.776 1013.788, 614.859 1013, 615.533 1013 C 618.315 1013, 644.261 1000.595, 646.092 998.390 C 646.726 997.625, 647.701 997, 648.257 997 C 648.814 997, 654.431 993.513, 660.739 989.250 C 667.047 984.987, 672.899 981.050, 673.742 980.500 C 674.586 979.950, 676.284 978.600, 677.515 977.500 C 678.747 976.400, 682.397 973.728, 685.627 971.562 C 688.857 969.396, 691.950 967.146, 692.500 966.562 C 693.050 965.978, 695.750 963.948, 698.500 962.051 C 701.250 960.155, 703.725 958.319, 704 957.972 C 704.275 957.625, 711.700 951.568, 720.500 944.512 C 729.300 937.456, 739.088 929.247, 742.252 926.269 C 749.659 919.297, 751.301 919.504, 752.089 927.511 C 752.953 936.290, 758.204 951.470, 762.154 956.605 C 762.622 957.213, 764.069 959.688, 765.371 962.105 C 768.101 967.173, 774.124 974.262, 782.010 981.688 C 791.980 991.075, 802.645 997.781, 813.777 1001.660 C 820.635 1004.050, 822.900 1004.343, 834 1004.280 C 843.991 1004.223, 847.805 1003.776, 853 1002.052 C 864.680 998.176, 870.423 995.577, 875.191 992.010 C 877.771 990.079, 881.821 987.069, 884.191 985.320 C 893.426 978.503, 903.476 967.696, 910.528 957 C 912.159 954.525, 914.008 952.168, 914.635 951.763 C 915.263 951.357, 916.057 949.910, 916.399 948.548 C 916.741 947.185, 918.306 944.142, 919.877 941.785 C 923.787 935.919, 928.995 925.808, 928.998 924.079 C 928.999 923.297, 929.596 921.947, 930.325 921.079 C 934.023 916.671, 941.862 892.216, 946.379 871 C 948.822 859.520, 951.229 830.888, 950.701 819.585 C 949.641 796.899, 945.984 773.227, 942.367 765.643 C 940.732 762.216, 940.729 761.791, 942.315 758.466 C 944.174 754.566, 944.541 749.452, 943.027 748.517 C 942.492 748.186, 941.599 746.224, 941.042 744.157 C 940.486 742.090, 938.111 737.667, 935.765 734.329 C 924.551 718.368, 901.495 705.673, 889.808 709.024 M 1598 725.087 C 1590.478 728.953, 1587.642 730.936, 1581.698 736.485 C 1579.939 738.127, 1576.766 740.943, 1574.646 742.743 C 1570.988 745.849, 1556.205 762.681, 1553 767.388 C 1552.175 768.600, 1549.250 772.491, 1546.500 776.035 C 1537.460 787.686, 1535.882 790.549, 1537.569 792.236 C 1537.883 792.549, 1547.670 783.225, 1559.319 771.515 C 1578.100 752.637, 1595.594 736.430, 1603.590 730.500 C 1608.363 726.960, 1611 724.129, 1611 722.545 C 1611 719.966, 1606.103 720.923, 1598 725.087 M 878.705 816.453 C 870.922 825.114, 855.211 846.198, 852.217 852 C 851.508 853.375, 849.822 856.300, 848.471 858.500 C 847.120 860.700, 845.329 863.850, 844.492 865.500 C 843.655 867.150, 842.563 869.175, 842.065 870 C 838.489 875.923, 831.398 892.960, 827.080 906 C 822.126 920.962, 821 925.561, 821 930.838 C 821 935.108, 821.306 936, 822.768 936 C 824.858 936, 842.560 918.724, 846.652 912.692 C 848.215 910.386, 849.775 908.275, 850.118 908 C 852.494 906.094, 865.362 882.439, 868.340 874.500 C 869.166 872.300, 871.032 867.350, 872.487 863.500 C 876.004 854.196, 879.626 840.794, 880.459 834 C 880.830 830.975, 881.800 826.108, 882.614 823.185 C 884.081 817.917, 883.771 814, 881.887 814 C 881.349 814, 879.917 815.104, 878.705 816.453" stroke="none" fill="#0e3373" fill-rule="evenodd"/></g></svg>